<svg width="512" height="512" viewBox="0 0 128 128" fill="none" xmlns="http://www.w3.org/2000/svg" data-fg-d3bl27="0.8:2.11128:/src/app/App.tsx:72:5:2619:1736:e:svg:etxtetetetxtetetetxtetetxtxtetetxtetetxtete:1" data-fgid-d3bl27=":ra8:"><rect width="128" height="128" rx="26" fill="#2A5C42" data-fg-d3bl28="0.8:2.11128:/src/app/App.tsx:73:7:2727:53:e:rect"/><circle cx="42" cy="52" r="28" fill="#5AAF82" data-fg-d3bl30="0.8:2.11128:/src/app/App.tsx:76:7:2823:51:e:circle"/><circle cx="42" cy="52" r="22" fill="#3D7A5C" data-fg-d3bl31="0.8:2.11128:/src/app/App.tsx:77:7:2881:49:e:circle"/><text x="42" y="48" text-anchor="middle" font-family="Inter,Arial,sans-serif" font-weight="900" font-size="13" fill="#FFFFFF" data-fg-d3bl32="0.8:2.11128:/src/app/App.tsx:78:7:2937:129:e:text:t">Rp</text><ellipse cx="42" cy="58" rx="12" ry="4" fill="#E8A830" data-fg-d3bl35="0.8:2.11128:/src/app/App.tsx:80:7:3110:55:e:ellipse"/><rect x="30" y="54" width="24" height="4" fill="#E8A830" data-fg-d3bl36="0.8:2.11128:/src/app/App.tsx:81:7:3172:57:e:rect"/><ellipse cx="42" cy="54" rx="12" ry="4" fill="#F5C044" data-fg-d3bl37="0.8:2.11128:/src/app/App.tsx:82:7:3236:57:e:ellipse"/><rect x="84" y="30" width="30" height="18" rx="6" fill="#FFFFFF" data-fg-d3bl39="0.8:2.11128:/src/app/App.tsx:85:7:3331:65:e:rect"/><text x="99" y="43" text-anchor="middle" font-family="Inter,Arial,sans-serif" font-weight="800" font-size="10" fill="#2A5C42" data-fg-d3bl40="0.8:2.11128:/src/app/App.tsx:86:7:3403:129:e:text:t">USD</text><path d="M74 44 L88 44" stroke="#FFFFFF" stroke-width="3" stroke-linecap="round" data-fg-d3bl44="0.8:2.11128:/src/app/App.tsx:90:7:3607:79:e:path"/><path d="M84 40 L88 44 L84 48" stroke="#FFFFFF" stroke-width="3" stroke-linecap="round" stroke-linejoin="round" data-fg-d3bl45="0.8:2.11128:/src/app/App.tsx:91:7:3693:109:e:path"/><path d="M88 58 L74 58" stroke="#5AAF82" stroke-width="3" stroke-linecap="round" data-fg-d3bl47="0.8:2.11128:/src/app/App.tsx:93:7:3845:84:e:path"/><path d="M78 54 L74 58 L78 62" stroke="#5AAF82" stroke-width="3" stroke-linecap="round" stroke-linejoin="round" data-fg-d3bl48="0.8:2.11128:/src/app/App.tsx:94:7:3936:114:e:path"/><path d="M30 90 A30 30 0 1 1 90 90" stroke="#5AAF82" stroke-width="5" stroke-linecap="round" fill="none" data-fg-d3bl50="0.8:2.11128:/src/app/App.tsx:97:7:4103:108:e:path"/><path d="M86 82 L90 90 L80 92" stroke="#5AAF82" stroke-width="4" stroke-linecap="round" stroke-linejoin="round" fill="none" data-fg-d3bl51="0.8:2.11128:/src/app/App.tsx:98:7:4218:126:e:path"/></svg>