<svg width="512" height="512" viewBox="0 0 128 128" fill="none" xmlns="http://www.w3.org/2000/svg" data-fg-d3bl0="0.8:2.11128:/src/app/App.tsx:18:5:477:1977:e:svg:xtetxtetxtetxtetxtxtxtetxte:1" data-fgid-d3bl0=":ra7:"><rect width="128" height="128" rx="26" fill="#2A5C42" data-fg-d3bl2="0.8:2.11128:/src/app/App.tsx:20:7:604:53:e:rect"/><rect x="16" y="14" width="72" height="100" rx="10" fill="#FFFFFF" data-fg-d3bl4="0.8:2.11128:/src/app/App.tsx:23:7:695:67:e:rect"/><rect x="22" y="20" width="60" height="26" rx="6" fill="#3D7A5C" data-fg-d3bl6="0.8:2.11128:/src/app/App.tsx:26:7:796:68:e:rect"/><text x="52" y="39" text-anchor="middle" font-family="Inter,Arial,sans-serif" font-weight="900" font-size="20" fill="#FFFFFF" data-fg-d3bl8="0.8:2.11128:/src/app/App.tsx:28:7:903:128:e:text:t">×</text><rect x="22" y="52" width="16" height="11" rx="2.5" fill="#2A5C42" opacity="0.22" data-fg-d3bl12="0.8:2.11128:/src/app/App.tsx:36:13:1245:311:e:rect"/><rect x="43" y="52" width="16" height="11" rx="2.5" fill="#2A5C42" opacity="0.22" data-fg-d3bl12="0.8:2.11128:/src/app/App.tsx:36:13:1245:311:e:rect"/><rect x="64" y="52" width="16" height="11" rx="2.5" fill="#2A5C42" opacity="0.22" data-fg-d3bl12="0.8:2.11128:/src/app/App.tsx:36:13:1245:311:e:rect"/><rect x="22" y="67" width="16" height="11" rx="2.5" fill="#2A5C42" opacity="0.22" data-fg-d3bl12="0.8:2.11128:/src/app/App.tsx:36:13:1245:311:e:rect"/><rect x="43" y="67" width="16" height="11" rx="2.5" fill="#2A5C42" opacity="0.22" data-fg-d3bl12="0.8:2.11128:/src/app/App.tsx:36:13:1245:311:e:rect"/><rect x="64" y="67" width="16" height="11" rx="2.5" fill="#2A5C42" opacity="0.22" data-fg-d3bl12="0.8:2.11128:/src/app/App.tsx:36:13:1245:311:e:rect"/><rect x="22" y="82" width="16" height="11" rx="2.5" fill="#2A5C42" opacity="0.22" data-fg-d3bl12="0.8:2.11128:/src/app/App.tsx:36:13:1245:311:e:rect"/><rect x="43" y="82" width="16" height="11" rx="2.5" fill="#2A5C42" opacity="0.22" data-fg-d3bl12="0.8:2.11128:/src/app/App.tsx:36:13:1245:311:e:rect"/><rect x="64" y="82" width="16" height="11" rx="2.5" fill="#2A5C42" opacity="0.22" data-fg-d3bl12="0.8:2.11128:/src/app/App.tsx:36:13:1245:311:e:rect"/><rect x="22" y="97" width="16" height="11" rx="2.5" fill="#E8A830" opacity="1" data-fg-d3bl12="0.8:2.11128:/src/app/App.tsx:36:13:1245:311:e:rect"/><rect x="43" y="97" width="16" height="11" rx="2.5" fill="#2A5C42" opacity="0.22" data-fg-d3bl12="0.8:2.11128:/src/app/App.tsx:36:13:1245:311:e:rect"/><rect x="64" y="97" width="16" height="11" rx="2.5" fill="#5AAF82" opacity="1" data-fg-d3bl12="0.8:2.11128:/src/app/App.tsx:36:13:1245:311:e:rect"/><text x="72" y="118" text-anchor="middle" font-family="Inter,Arial,sans-serif" font-weight="700" font-size="7" fill="#FFFFFF" data-fg-d3bl14="0.8:2.11128:/src/app/App.tsx:50:7:1638:128:e:text:t">%</text><g transform="translate(88, 28)" data-fg-d3bl17="0.8:2.11128:/src/app/App.tsx:53:7:1846:597:e:g:xtetxtetetetetxte"><rect x="4" y="22" width="24" height="18" rx="5" fill="#5AAF82" data-fg-d3bl19="0.8:2.11128:/src/app/App.tsx:55:9:1909:69:e:rect"/><rect x="4" y="8" width="5" height="17" rx="2.5" fill="#5AAF82" data-fg-d3bl21="0.8:2.11128:/src/app/App.tsx:57:9:2011:69:e:rect"/><rect x="11" y="4" width="5" height="21" rx="2.5" fill="#5AAF82" data-fg-d3bl22="0.8:2.11128:/src/app/App.tsx:58:9:2089:70:e:rect"/><rect x="18" y="6" width="5" height="19" rx="2.5" fill="#5AAF82" data-fg-d3bl23="0.8:2.11128:/src/app/App.tsx:59:9:2168:70:e:rect"/><rect x="25" y="12" width="5" height="15" rx="2.5" fill="#5AAF82" data-fg-d3bl24="0.8:2.11128:/src/app/App.tsx:60:9:2247:71:e:rect"/><rect x="0" y="22" width="8" height="5" rx="2.5" fill="#5AAF82" data-fg-d3bl26="0.8:2.11128:/src/app/App.tsx:62:9:2363:69:e:rect"/></g></svg>