<svg width="512" height="512" viewBox="0 0 128 128" fill="none" xmlns="http://www.w3.org/2000/svg" data-fg-d3bl52="0.8:2.11128:/src/app/App.tsx:107:5:4519:1710:e:svg:etxtetxtetetxtxtxtetxtetxtetetxtetxtete:1" data-fgid-d3bl52=":ra9:"><rect width="128" height="128" rx="26" fill="#2A5C42" data-fg-d3bl53="0.8:2.11128:/src/app/App.tsx:108:7:4627:53:e:rect"/><rect x="18" y="14" width="70" height="68" rx="10" fill="#FFFFFF" data-fg-d3bl55="0.8:2.11128:/src/app/App.tsx:111:7:4734:66:e:rect"/><rect x="24" y="20" width="58" height="22" rx="5" fill="#3D7A5C" data-fg-d3bl57="0.8:2.11128:/src/app/App.tsx:113:7:4829:68:e:rect"/><text x="53" y="36" text-anchor="middle" font-family="Inter,Arial,sans-serif" font-weight="900" font-size="15" fill="#FFFFFF" data-fg-d3bl58="0.8:2.11128:/src/app/App.tsx:114:7:4904:129:e:text:t">Rp</text><rect x="24" y="48" width="12" height="9" rx="2" fill="#2A5C42" opacity="0.18" data-fg-d3bl62="0.8:2.11128:/src/app/App.tsx:118:11:5138:247:e:rect"/><rect x="40" y="48" width="12" height="9" rx="2" fill="#2A5C42" opacity="0.18" data-fg-d3bl62="0.8:2.11128:/src/app/App.tsx:118:11:5138:247:e:rect"/><rect x="56" y="48" width="12" height="9" rx="2" fill="#2A5C42" opacity="0.18" data-fg-d3bl62="0.8:2.11128:/src/app/App.tsx:118:11:5138:247:e:rect"/><rect x="72" y="48" width="12" height="9" rx="2" fill="#2A5C42" opacity="0.18" data-fg-d3bl62="0.8:2.11128:/src/app/App.tsx:118:11:5138:247:e:rect"/><rect x="24" y="60" width="12" height="9" rx="2" fill="#2A5C42" opacity="0.18" data-fg-d3bl62="0.8:2.11128:/src/app/App.tsx:118:11:5138:247:e:rect"/><rect x="40" y="60" width="12" height="9" rx="2" fill="#2A5C42" opacity="0.18" data-fg-d3bl62="0.8:2.11128:/src/app/App.tsx:118:11:5138:247:e:rect"/><rect x="56" y="60" width="12" height="9" rx="2" fill="#2A5C42" opacity="0.18" data-fg-d3bl62="0.8:2.11128:/src/app/App.tsx:118:11:5138:247:e:rect"/><rect x="72" y="60" width="12" height="9" rx="2" fill="#2A5C42" opacity="0.18" data-fg-d3bl62="0.8:2.11128:/src/app/App.tsx:118:11:5138:247:e:rect"/><rect x="24" y="72" width="12" height="9" rx="2" fill="#2A5C42" opacity="0.18" data-fg-d3bl62="0.8:2.11128:/src/app/App.tsx:118:11:5138:247:e:rect"/><rect x="40" y="72" width="12" height="9" rx="2" fill="#2A5C42" opacity="0.18" data-fg-d3bl62="0.8:2.11128:/src/app/App.tsx:118:11:5138:247:e:rect"/><rect x="56" y="72" width="12" height="9" rx="2" fill="#2A5C42" opacity="0.18" data-fg-d3bl62="0.8:2.11128:/src/app/App.tsx:118:11:5138:247:e:rect"/><rect x="72" y="72" width="12" height="9" rx="2" fill="#2A5C42" opacity="0.6" data-fg-d3bl62="0.8:2.11128:/src/app/App.tsx:118:11:5138:247:e:rect"/><rect x="28" y="78" width="72" height="40" rx="9" fill="#5AAF82" data-fg-d3bl64="0.8:2.11128:/src/app/App.tsx:132:7:5437:70:e:rect"/><path d="M52 78 L52 70 Q52 64 64 64 Q76 64 76 70 L76 78" stroke="#5AAF82" stroke-width="5" fill="none" stroke-linecap="round" data-fg-d3bl66="0.8:2.11128:/src/app/App.tsx:134:7:5545:129:e:path"/><rect x="58" y="94" width="16" height="10" rx="3" fill="#3D7A5C" data-fg-d3bl68="0.8:2.11128:/src/app/App.tsx:136:7:5711:68:e:rect"/><rect x="61" y="97" width="6" height="4" rx="1" fill="#5AAF82" data-fg-d3bl69="0.8:2.11128:/src/app/App.tsx:137:7:5786:68:e:rect"/><line x1="28" y1="98" x2="100" y2="98" stroke="#3D7A5C" stroke-width="2" opacity="0.5" data-fg-d3bl71="0.8:2.11128:/src/app/App.tsx:139:7:5898:89:e:line"/><circle cx="96" cy="54" r="16" fill="#5AAF82" data-fg-d3bl73="0.8:2.11128:/src/app/App.tsx:142:7:6031:51:e:circle"/><text x="96" y="59" text-anchor="middle" font-family="Inter,Arial,sans-serif" font-weight="900" font-size="11" fill="#FFFFFF" data-fg-d3bl74="0.8:2.11128:/src/app/App.tsx:143:7:6089:129:e:text:t">Rp</text></svg>